<svg width="147" height="138" viewBox="0 0 147 138" fill="none" xmlns="http://www.w3.org/2000/svg">
<path d="M76.5 72.6738C77.3464 74.5205 78.0197 75.6939 78.5775 76.4248" stroke="#0D0D12" stroke-width="0.990246"/>
<path d="M78 136.834C115.278 136.834 145.5 106.672 145.5 69.3345C145.5 31.9969 115.145 1.83447 78 1.83447C40.7219 1.83447 10.5 31.9969 10.5 69.3345C10.5 106.672 40.7219 136.834 78 136.834Z" fill="#F8F9FB" stroke="#C1C7CF" stroke-width="1.98049" stroke-miterlimit="10"/>
<path d="M128.744 40.0277C130.986 40.0277 132.804 38.21 132.804 35.9677C132.804 33.7254 130.986 31.9077 128.744 31.9077C126.501 31.9077 124.684 33.7254 124.684 35.9677C124.684 38.21 126.501 40.0277 128.744 40.0277Z" fill="#EEEFF2"/>
<path d="M134.684 24.184C136.215 24.184 137.457 22.9427 137.457 21.4114C137.457 19.88 136.215 18.6387 134.684 18.6387C133.153 18.6387 131.911 19.88 131.911 21.4114C131.911 22.9427 133.153 24.184 134.684 24.184Z" fill="#EEEFF2"/>
<path d="M34.2727 39.9287C35.804 39.9287 37.0454 38.6873 37.0454 37.156C37.0454 35.6247 35.804 34.3833 34.2727 34.3833C32.7414 34.3833 31.5 35.6247 31.5 37.156C31.5 38.6873 32.7414 39.9287 34.2727 39.9287Z" fill="#EEEFF2"/>
<path d="M5.64929 82.7009C8.49316 82.7009 10.7986 80.3955 10.7986 77.5516C10.7986 74.7078 8.49316 72.4023 5.64929 72.4023C2.80541 72.4023 0.5 74.7078 0.5 77.5516C0.5 80.3955 2.80541 82.7009 5.64929 82.7009Z" fill="#EEEFF2"/>
<g clip-path="url(#clip0_78_6537)">
<path d="M128.312 52.6538H104.688C103.643 52.6538 102.642 53.0687 101.903 53.8071C101.165 54.5455 100.75 55.547 100.75 56.5913V94.6538H132.25V56.5913C132.25 55.547 131.835 54.5455 131.097 53.8071C130.358 53.0687 129.357 52.6538 128.312 52.6538ZM113.875 92.0288V84.1538H119.125V92.0288H113.875ZM129.625 92.0288H121.75V82.8413C121.75 82.4932 121.612 82.1594 121.366 81.9132C121.119 81.6671 120.786 81.5288 120.438 81.5288H112.562C112.214 81.5288 111.881 81.6671 111.634 81.9132C111.388 82.1594 111.25 82.4932 111.25 82.8413V92.0288H103.375V56.5913C103.375 56.2432 103.513 55.9094 103.759 55.6632C104.006 55.4171 104.339 55.2788 104.688 55.2788H128.312C128.661 55.2788 128.994 55.4171 129.241 55.6632C129.487 55.9094 129.625 56.2432 129.625 56.5913V92.0288ZM108.625 60.5288H113.875V65.7788H108.625V60.5288ZM119.125 60.5288H124.375V65.7788H119.125V60.5288ZM108.625 71.0288H113.875V76.2788H108.625V71.0288ZM119.125 71.0288H124.375V76.2788H119.125V71.0288Z" fill="#C1C7CF"/>
</g>
<g clip-path="url(#clip1_78_6537)">
<path d="M51.3125 53.6538H27.6875C26.6432 53.6538 25.6417 54.0687 24.9032 54.8071C24.1648 55.5455 23.75 56.547 23.75 57.5913V95.6538H55.25V57.5913C55.25 56.547 54.8352 55.5455 54.0968 54.8071C53.3583 54.0687 52.3568 53.6538 51.3125 53.6538ZM36.875 93.0288V85.1538H42.125V93.0288H36.875ZM52.625 93.0288H44.75V83.8413C44.75 83.4932 44.6117 83.1594 44.3656 82.9132C44.1194 82.6671 43.7856 82.5288 43.4375 82.5288H35.5625C35.2144 82.5288 34.8806 82.6671 34.6344 82.9132C34.3883 83.1594 34.25 83.4932 34.25 83.8413V93.0288H26.375V57.5913C26.375 57.2432 26.5133 56.9094 26.7594 56.6632C27.0056 56.4171 27.3394 56.2788 27.6875 56.2788H51.3125C51.6606 56.2788 51.9944 56.4171 52.2406 56.6632C52.4867 56.9094 52.625 57.2432 52.625 57.5913V93.0288ZM31.625 61.5288H36.875V66.7788H31.625V61.5288ZM42.125 61.5288H47.375V66.7788H42.125V61.5288ZM31.625 72.0288H36.875V77.2788H31.625V72.0288ZM42.125 72.0288H47.375V77.2788H42.125V72.0288Z" fill="#C1C7CF"/>
</g>
<g clip-path="url(#clip2_78_6537)">
<path d="M97.0625 38.6538H59.9375C58.2965 38.6538 56.7226 39.3057 55.5622 40.4661C54.4019 41.6265 53.75 43.2003 53.75 44.8413V104.654H103.25V44.8413C103.25 43.2003 102.598 41.6265 101.438 40.4661C100.277 39.3057 98.7035 38.6538 97.0625 38.6538ZM74.375 100.529V88.1538H82.625V100.529H74.375ZM99.125 100.529H86.75V86.0913C86.75 85.5443 86.5327 85.0197 86.1459 84.6329C85.7591 84.2461 85.2345 84.0288 84.6875 84.0288H72.3125C71.7655 84.0288 71.2409 84.2461 70.8541 84.6329C70.4673 85.0197 70.25 85.5443 70.25 86.0913V100.529H57.875V44.8413C57.875 44.2943 58.0923 43.7697 58.4791 43.3829C58.8659 42.9961 59.3905 42.7788 59.9375 42.7788H97.0625C97.6095 42.7788 98.1341 42.9961 98.5209 43.3829C98.9077 43.7697 99.125 44.2943 99.125 44.8413V100.529ZM66.125 51.0288H74.375V59.2788H66.125V51.0288ZM82.625 51.0288H90.875V59.2788H82.625V51.0288ZM66.125 67.5288H74.375V75.7788H66.125V67.5288ZM82.625 67.5288H90.875V75.7788H82.625V67.5288Z" fill="#C1C7CF"/>
</g>
<path d="M93.4095 110.841C93.0901 112.198 92.6111 113.635 92.0522 114.833C90.5352 117.787 88.1399 120.103 85.1858 121.62C82.1518 123.137 78.5589 123.775 74.966 122.977C66.5028 121.22 61.0735 112.917 62.83 104.454C64.5866 95.9905 72.8103 90.4814 81.2735 92.3178C84.3075 92.9565 86.9423 94.4735 89.1779 96.5494C92.9305 100.302 94.5273 105.731 93.4095 110.841Z" fill="#C1C7CF" stroke="#A4ABB8" stroke-width="1.98049" stroke-miterlimit="10"/>
<path d="M82.7577 105.3H80.1551V102.697C80.1551 101.47 79.1905 100.35 77.8075 100.35C76.5805 100.35 75.46 101.314 75.46 102.697V105.3H72.8573C71.6303 105.3 70.5098 106.264 70.5098 107.647C70.5098 108.284 70.7366 108.883 71.179 109.326C71.6215 109.768 72.2209 109.995 72.8573 109.995H75.46V112.598C75.46 113.825 76.4245 114.945 77.8075 114.945C79.0345 114.945 80.1551 113.981 80.1551 112.598V109.995H82.7577C83.9847 109.995 85.1053 109.03 85.1053 107.647C85.1053 106.264 83.9847 105.3 82.7577 105.3Z" fill="white" stroke="#A4ABB8" stroke-width="1.98049"/>
<defs>
<clipPath id="clip0_78_6537">
<rect width="42" height="42" fill="white" transform="translate(95.5 52.6538)"/>
</clipPath>
<clipPath id="clip1_78_6537">
<rect width="42" height="42" fill="white" transform="translate(18.5 53.6538)"/>
</clipPath>
<clipPath id="clip2_78_6537">
<rect width="66" height="66" fill="white" transform="translate(45.5 38.6538)"/>
</clipPath>
</defs>
</svg>
