<svg width="121" height="106" viewBox="0 0 121 106" fill="none" xmlns="http://www.w3.org/2000/svg">
<path d="M22.2861 54.0195C23.1325 55.8662 23.8058 57.0396 24.3636 57.7705" stroke="#0D0D12" stroke-width="0.990246"/>
<path d="M64.3481 104.669C92.0751 104.669 114.554 82.1904 114.554 54.3645C114.554 26.5386 91.9761 4.06006 64.3481 4.06006C36.6212 4.06006 14.1426 26.5386 14.1426 54.3645C14.1426 82.1904 36.6212 104.669 64.3481 104.669Z" fill="#F8F9FB" stroke="#C1C7CF" stroke-width="1.98049" stroke-miterlimit="10"/>
<path d="M111.287 21.389C113.529 21.389 115.347 19.5713 115.347 17.329C115.347 15.0868 113.529 13.269 111.287 13.269C109.044 13.269 107.227 15.0868 107.227 17.329C107.227 19.5713 109.044 21.389 111.287 21.389Z" fill="#EEEFF2"/>
<path d="M117.227 5.54537C118.758 5.54537 119.999 4.304 119.999 2.77268C119.999 1.24137 118.758 0 117.227 0C115.695 0 114.454 1.24137 114.454 2.77268C114.454 4.304 115.695 5.54537 117.227 5.54537Z" fill="#EEEFF2"/>
<path d="M16.8157 21.2905C18.347 21.2905 19.5884 20.0491 19.5884 18.5178C19.5884 16.9865 18.347 15.7451 16.8157 15.7451C15.2843 15.7451 14.043 16.9865 14.043 18.5178C14.043 20.0491 15.2843 21.2905 16.8157 21.2905Z" fill="#EEEFF2"/>
<path d="M5.14929 81.2277C7.99316 81.2277 10.2986 78.9223 10.2986 76.0785C10.2986 73.2346 7.99316 70.9292 5.14929 70.9292C2.30541 70.9292 0 73.2346 0 76.0785C0 78.9223 2.30541 81.2277 5.14929 81.2277Z" fill="#EEEFF2"/>
<path d="M117.664 76.8305H102.433C101.713 76.8305 101.095 76.3674 100.889 75.7499C99.3971 71.3247 96.1039 70.2441 88.1281 67.1052C87.665 66.8994 87.6136 66.2819 88.0767 66.0247C90.3922 64.8926 89.9806 63.915 89.9806 57.1227C89.8776 57.0198 89.7747 56.8654 89.7233 56.7625C89.2087 55.9907 88.8485 55.0645 88.7456 54.1382L88.231 53.881C86.6873 54.2412 86.7903 52.5946 86.3786 49.4043C86.2242 48.0664 86.4301 47.8091 86.9961 47.6033L87.5107 46.9344C84.4747 40.1421 86.0184 35.8712 89.0029 34.3275C88.0252 32.1664 87.9738 31.3945 87.9738 31.3945C87.9738 31.3945 94.3029 32.4751 96.4641 32.012C99.2427 31.446 103.462 32.1149 105.057 35.7683C107.682 36.7974 108.711 38.4955 108.968 40.245C109.328 43.1266 107.733 46.2654 107.424 47.5004C107.476 47.5518 107.476 47.6033 107.527 47.6547C107.939 47.8606 108.093 48.2208 107.939 49.3528C107.579 52.3887 107.63 54.2926 106.086 53.8295L104.697 56.248C104.646 56.5567 104.594 56.6596 104.594 56.814C104.543 57.2771 104.543 58.1518 104.543 63.1946C104.543 63.812 104.697 64.3781 105.006 64.8412C105.315 65.4072 105.829 65.8188 106.447 66.0761H106.498C110.1 67.5683 112.673 68.546 114.577 69.3179C118.796 71.0159 119.517 71.479 119.877 74.3091C119.98 75.6985 119.002 76.8305 117.664 76.8305Z" fill="white" stroke="#C1C7CF" stroke-width="1.98049" stroke-miterlimit="10"/>
<path d="M107.32 47.4476C107.474 46.6758 107.114 45.7496 106.805 45.0806C106.754 44.9777 106.702 44.8748 106.651 44.7204C105.467 42.302 102.74 41.2729 100.167 41.17C93.5809 40.8098 92.9634 42.0962 90.9051 40.1923C91.5226 41.17 91.6255 42.6622 90.5964 44.5661C89.9275 45.9039 88.5896 46.47 87.4061 46.8816C84.4216 40.0894 85.9139 35.8185 88.8983 34.2748C87.9207 32.1136 87.8692 31.3418 87.8692 31.3418C87.8692 31.3418 94.1984 32.4224 96.3595 31.9593C99.1382 31.3933 103.358 32.0622 104.953 35.7156C107.577 36.7447 108.606 38.4428 108.863 40.1923C109.275 43.0738 107.629 46.2127 107.32 47.4476Z" fill="#C1C7CF"/>
<path d="M89.916 57.0241C90.2248 57.5901 90.391 57.4822 90.8541 57.8938L95.6395 61.2385C96.7716 62.1647 98.3667 62.2162 99.4988 61.2899L103.975 57.2763C104.13 57.122 104.346 56.7032 104.501 56.5488" stroke="#C1C7CF" stroke-width="1.98049" stroke-miterlimit="10"/>
<path d="M38.935 65.3543C36.4651 65.3029 36.2078 64.8398 36.2078 64.8398V60.7232C38.8321 58.5621 41.0448 56.0407 41.6622 52.7475C43.3088 52.3873 44.338 50.8951 44.1836 49.2485C44.1321 48.5281 43.669 47.8592 43.6176 47.0873C43.6176 46.7271 43.6176 46.3669 43.6176 46.0067C43.6176 45.7494 43.6176 45.5436 43.5661 45.2863C43.5661 45.0291 43.5147 44.7718 43.5147 44.5145C43.3603 43.2795 43.0516 41.9931 42.2283 40.5009C40.17 36.6417 36.1049 34.0688 31.5253 34.0688C30.5991 34.0688 29.6729 34.1718 28.7981 34.3776C27.1515 34.7378 25.6593 35.4582 24.3214 36.4873C24.0641 36.6931 23.8068 36.8989 23.5495 37.1048C23.4981 37.1562 23.4466 37.2077 23.3437 37.2591C21.9029 38.597 20.7709 40.2951 20.1534 42.199C19.5359 44.1028 19.3816 46.0582 19.6388 48.0135C19.6388 48.065 19.6388 48.1164 19.6388 48.1679C19.6388 48.2193 19.6388 48.2708 19.6388 48.3223C19.6903 48.6825 19.7932 48.631 19.5359 48.9397C19.4845 49.0426 19.3816 49.1456 19.3301 49.2999C19.0214 49.8659 18.7641 50.6378 19.1243 51.564C19.7418 53.3135 20.9767 53.0562 22.1088 54.0339C22.0573 54.0854 21.9544 54.1368 21.9029 54.1368H21.8515L20.5651 54.5485C12.8466 56.9669 11.9718 65.1485 19.8961 66.6407C19.3301 66.6922 18.8155 67.0009 18.4553 67.2582C15.934 69.2135 14.3388 72.198 13.9272 75.131C13.7728 76.0058 14.4932 76.8291 15.4194 76.8291H27.6661C27.9233 76.8291 28.1806 76.6233 28.2835 76.366C29.4156 72.2495 31.9884 70.8087 37.3399 68.6475L40.4273 67.4126C40.9418 67.2067 41.5079 67.0009 42.1253 66.7436C42.6914 66.5378 42.6399 65.7145 42.0224 65.5601C41.405 65.4058 40.7875 65.3543 40.17 65.3029C39.6554 65.3543 39.2438 65.3543 38.935 65.3543ZM23.2408 60.1058C23.2408 59.5912 23.601 59.0252 24.3728 58.4077C24.6816 58.8194 25.0932 59.2825 25.5563 59.6941C25.9165 60.0029 26.2767 60.3116 26.6884 60.6203C26.9457 60.7747 27.2029 60.9805 27.4602 61.1863C27.5117 61.2378 27.5631 61.2893 27.6146 61.2893C27.6661 61.3407 27.769 61.3922 27.8204 61.4436V63.965C27.769 63.9135 27.7175 63.8621 27.6661 63.8621C27.4088 63.6563 27.2029 63.4504 26.9971 63.2961C26.6369 63.0388 26.2767 62.833 25.9165 62.6271C25.7622 62.5242 25.6593 62.4728 25.5563 62.3698C24.3728 61.598 23.2923 60.8776 23.2408 60.1058Z" fill="white" stroke="#C1C7CF" stroke-width="1.98049" stroke-miterlimit="10"/>
<path d="M27.7783 61.387C29.9395 62.4675 32.4002 62.936 36.2594 60.6719" stroke="#C1C7CF" stroke-width="1.98049" stroke-miterlimit="10"/>
<path d="M43.5138 45.2866C41.3012 46.0585 38.9342 46.3672 36.5672 46.1614C32.8623 45.8527 29.2604 44.3604 26.4817 41.8905C25.5555 44.5662 23.24 46.573 20.6157 47.7565C20.2555 47.9109 19.8953 48.0653 19.5351 48.1682C19.5351 48.1167 19.5351 48.0653 19.5351 48.0653C19.2778 46.1099 19.4322 44.1546 20.0497 42.2507C20.6671 40.3468 21.7992 38.6488 23.24 37.3109C23.2914 37.2594 23.3429 37.208 23.4458 37.1565C23.7031 36.9507 23.9604 36.7449 24.2176 36.5391C25.5555 35.5614 27.0992 34.841 28.6944 34.4293C29.6206 34.2235 30.4953 34.1206 31.4215 34.1206C36.0012 34.1206 40.0662 36.6934 42.1245 40.5526C42.8964 42.0449 43.2565 43.3313 43.4109 44.5148C43.5138 44.7721 43.5138 45.0294 43.5138 45.2866Z" fill="#C1C7CF"/>
<path d="M29.3631 71.5804C28.3854 72.8154 26.533 72.8668 24.9893 72.8154C26.6359 71.2202 25.7097 66.0231 19.9466 66.6406H19.8951C11.9708 65.1484 12.8456 56.9668 20.5126 54.5484L21.799 54.1367C21.9019 54.1882 21.9534 54.2396 22.0048 54.3425C22.6223 55.9377 23.4456 57.2756 24.3204 58.3561C21.1815 60.9804 25.5553 61.8037 27.6651 63.8105C29.5175 64.8911 31.0612 69.4193 29.3631 71.5804Z" fill="#C1C7CF"/>
<path d="M20.8447 53.2114C24.5573 54.6734 22.9134 56.6187 24.4138 58.3884" stroke="#C1C7CF" stroke-width="1.78244"/>
<path d="M97.9548 79.1965C98.2121 81.1004 96.7199 82.8499 94.7645 82.8499H34.4575C32.5021 82.8499 31.0099 81.1004 31.2672 79.1965C31.8332 75.2343 32.708 74.411 38.574 72.044L40.0148 71.478C42.742 70.3974 46.2925 69.0596 51.078 67.0528C52.1585 66.5897 53.0333 65.7664 53.4964 64.6858C53.7537 64.1198 53.9081 63.4508 53.9081 62.7819V53.777C53.7537 53.5712 53.5993 53.4168 53.4964 53.211C52.7246 52.079 52.21 50.7411 52.0556 49.3003L51.2838 48.9401C48.9682 49.5062 49.1741 47.0363 48.5566 42.3023C48.2993 40.3469 48.608 39.9353 49.4828 39.6265L50.2032 38.6489C45.7779 28.6149 47.9906 22.3372 52.3644 20.1246C51.0265 16.9343 50.9236 15.8022 50.9236 15.8022C50.9236 15.8022 60.2372 17.3459 63.4275 16.7285C67.4926 15.9052 73.7703 16.8828 76.0858 22.2857C79.9451 23.8294 81.4373 26.2479 81.7975 28.9236C82.3635 33.143 79.9451 37.7741 79.482 39.5751C79.5334 39.678 79.5334 39.7295 79.5849 39.7809C80.2023 40.0896 80.4082 40.6042 80.2023 42.3023C79.6363 46.779 79.7907 49.5576 77.4752 48.9401L75.4169 52.5421C75.314 52.9537 75.314 53.1081 75.2625 53.4168C75.1596 54.0858 75.2111 55.4236 75.2111 62.7819C75.2111 63.6567 75.4683 64.5314 75.9315 65.2003C76.446 65.9722 77.1664 66.6411 78.0412 67.0013C78.0926 67.0013 78.0926 67.0013 78.1441 67.0528C83.4441 69.2654 87.2519 70.7062 90.0305 71.7868C96.3597 74.2567 97.3374 75.0285 97.9548 79.1965Z" fill="white" stroke="#C1C7CF" stroke-width="1.98049" stroke-miterlimit="10"/>
<path d="M79.5329 39.5751C79.7388 38.443 79.2242 37.0537 78.8126 36.0761C78.7611 35.9217 78.6582 35.7673 78.6067 35.5615C76.8058 31.9595 72.8436 30.5188 69.0358 30.3129C59.3105 29.7984 58.4358 31.6508 55.3998 28.8722C56.3261 30.3129 56.429 32.5256 54.9882 35.3042C53.9591 37.2595 52.0037 38.1343 50.3056 38.7003C45.8804 28.6663 48.093 22.3887 52.4668 20.176C51.026 16.9343 50.9231 15.8022 50.9231 15.8022C50.9231 15.8022 60.2368 17.3459 63.4271 16.7285C67.4921 15.9052 73.7698 16.8828 76.0854 22.2857C79.9446 23.8294 81.4368 26.2479 81.797 28.9236C82.4145 33.0916 79.9961 37.7227 79.5329 39.5751Z" fill="#C1C7CF"/>
<path d="M53.9595 53.7769C53.8051 53.5711 53.6508 53.4167 53.5479 53.2109V52.6963C54.011 53.5196 54.6284 54.2914 55.4003 54.9089L62.4498 59.8487C64.0964 61.238 66.4634 61.2895 68.1615 59.9516L74.7479 54.0342C74.9538 53.8283 75.211 53.6225 75.4169 53.4167" stroke="#C1C7CF" stroke-width="1.98049" stroke-miterlimit="10"/>
<path d="M82.1683 92.1872C81.8489 93.5445 81.3699 94.9817 80.811 96.1793C79.294 99.1335 76.8987 101.449 73.9446 102.966C70.9106 104.483 67.3177 105.122 63.7248 104.323C55.2616 102.567 49.8323 94.2631 51.5888 85.7999C53.3454 77.3367 61.5691 71.8276 70.0323 73.664C73.0663 74.3027 75.7011 75.8197 77.9367 77.8956C81.6892 81.6481 83.2861 87.0774 82.1683 92.1872Z" fill="#C1C7CF" stroke="#A4ABB8" stroke-width="1.98049" stroke-miterlimit="10"/>
<path d="M71.87 86.6455H69.2674V84.0429C69.2674 82.8159 68.3028 81.6953 66.9198 81.6953C65.6928 81.6953 64.5723 82.6598 64.5723 84.0429V86.6455H61.9696C60.7426 86.6455 59.6221 87.61 59.6221 88.993C59.6221 89.6295 59.8489 90.2288 60.2913 90.6713C60.7338 91.1138 61.3332 91.3406 61.9696 91.3406H64.5723V93.9432C64.5723 95.1702 65.5368 96.2908 66.9198 96.2908C68.1468 96.2908 69.2674 95.3262 69.2674 93.9432V91.3406H71.87C73.097 91.3406 74.2176 90.3761 74.2176 88.993C74.2176 87.61 73.097 86.6455 71.87 86.6455Z" fill="white" stroke="#A4ABB8" stroke-width="1.98049"/>
</svg>
