<svg width="1108" height="44" viewBox="0 0 1108 44" fill="none" xmlns="http://www.w3.org/2000/svg">
<g filter="url(#filter0_d_7_1472)">
<rect x="2" y="1" width="248" height="40" rx="10" fill="white" shape-rendering="crispEdges"/>
<rect x="2.5" y="1.5" width="247" height="39" rx="9.5" stroke="#DFE1E6" shape-rendering="crispEdges"/>
<path d="M19.3333 15H18C16.8954 15 16 15.8954 16 17V19M19.3333 15V14.3333M19.3333 15H24.6667M19.3333 15V15.6666M24.6667 15H26C27.1046 15 28 15.8954 28 17V19M24.6667 15V14.3333M24.6667 15V15.6666M16 19V25.6666C16 26.7712 16.8954 27.6666 18 27.6666H26C27.1046 27.6666 28 26.7712 28 25.6666V19M16 19H28" stroke="#808897" stroke-width="2" stroke-linecap="round"/>
<path d="M38.8965 26.5V16.3145H40.4346V25.1807H45.0488V26.5H38.8965ZM48.5964 26.6641C48.1133 26.6641 47.6758 26.5752 47.2839 26.3975C46.892 26.2152 46.5821 25.9508 46.3542 25.6045C46.1264 25.2581 46.0124 24.8366 46.0124 24.3398C46.0124 23.9069 46.0945 23.5537 46.2585 23.2803C46.4271 23.0023 46.6527 22.7812 46.9353 22.6172C47.2178 22.4531 47.5323 22.3301 47.8786 22.248C48.225 22.166 48.5805 22.1022 48.945 22.0566C49.4053 22.0065 49.7767 21.9632 50.0593 21.9268C50.3418 21.8903 50.5469 21.8333 50.6745 21.7559C50.8067 21.6738 50.8728 21.5439 50.8728 21.3662V21.332C50.8728 20.8991 50.7497 20.5641 50.5036 20.3271C50.2621 20.0902 49.9021 19.9717 49.4236 19.9717C48.9268 19.9717 48.5326 20.0811 48.2409 20.2998C47.9538 20.514 47.7556 20.7578 47.6462 21.0312L46.2448 20.71C46.4135 20.2451 46.6573 19.8714 46.9763 19.5889C47.2999 19.3018 47.669 19.0921 48.0837 18.96C48.503 18.8278 48.9405 18.7617 49.3962 18.7617C49.7015 18.7617 50.0251 18.7982 50.3669 18.8711C50.7087 18.9395 51.03 19.0693 51.3308 19.2607C51.6361 19.4476 51.8845 19.7165 52.0759 20.0674C52.2673 20.4183 52.363 20.8717 52.363 21.4277V26.5H50.907V25.4541H50.8523C50.7611 25.641 50.6176 25.8278 50.4216 26.0146C50.2302 26.2015 49.9841 26.3564 49.6833 26.4795C49.3825 26.6025 49.0202 26.6641 48.5964 26.6641ZM48.9177 25.4746C49.3324 25.4746 49.6856 25.3949 49.9773 25.2354C50.2689 25.0713 50.4922 24.8571 50.6472 24.5928C50.8021 24.3285 50.8796 24.0482 50.8796 23.752V22.7607C50.8249 22.8109 50.7224 22.8587 50.572 22.9043C50.4216 22.9499 50.2507 22.9886 50.0593 23.0205C49.8679 23.0524 49.681 23.082 49.4988 23.1094C49.3165 23.1322 49.1638 23.1504 49.0407 23.1641C48.7536 23.2051 48.4916 23.2689 48.2546 23.3555C48.0176 23.4375 47.8262 23.5605 47.6804 23.7246C47.5391 23.8841 47.4685 24.096 47.4685 24.3604C47.4685 24.7295 47.6052 25.0075 47.8786 25.1943C48.1521 25.3812 48.4984 25.4746 48.9177 25.4746ZM59.7866 20.7305L58.4399 20.9629C58.3533 20.7077 58.1915 20.473 57.9545 20.2588C57.7221 20.0446 57.3735 19.9375 56.9086 19.9375C56.4894 19.9375 56.1385 20.0332 55.8559 20.2246C55.5779 20.4115 55.4389 20.6507 55.4389 20.9424C55.4389 21.1976 55.5323 21.4049 55.7192 21.5645C55.9106 21.724 56.2136 21.8516 56.6284 21.9473L57.852 22.2207C58.5493 22.3802 59.0711 22.6309 59.4174 22.9727C59.7638 23.3145 59.937 23.752 59.937 24.2852C59.937 24.7454 59.8048 25.1556 59.5405 25.5156C59.2761 25.8711 58.9093 26.1514 58.4399 26.3564C57.9705 26.557 57.4282 26.6572 56.8129 26.6572C55.9562 26.6572 55.2589 26.4727 54.7211 26.1035C54.1834 25.7344 53.853 25.2148 53.7299 24.5449L55.1586 24.3262C55.2498 24.6999 55.4343 24.9824 55.7123 25.1738C55.9949 25.3652 56.3595 25.4609 56.8061 25.4609C57.2892 25.4609 57.6765 25.3584 57.9682 25.1533C58.2644 24.9482 58.4125 24.6999 58.4125 24.4082C58.4125 23.9251 58.0525 23.5993 57.3325 23.4307L56.0405 23.1436C55.325 22.9795 54.7963 22.722 54.4545 22.3711C54.1173 22.0156 53.9487 21.569 53.9487 21.0312C53.9487 20.5801 54.074 20.1836 54.3246 19.8418C54.5799 19.5 54.9285 19.2357 55.3705 19.0488C55.8172 18.8574 56.3253 18.7617 56.895 18.7617C57.7244 18.7617 58.3738 18.9417 58.8432 19.3018C59.3172 19.6618 59.6316 20.138 59.7866 20.7305ZM64.8107 18.8574V20.0537H60.6408V18.8574H64.8107ZM61.755 17.0391H63.2384V24.2578C63.2384 24.6087 63.3114 24.8662 63.4572 25.0303C63.603 25.1898 63.8377 25.2695 64.1613 25.2695C64.2388 25.2695 64.3208 25.265 64.4074 25.2559C64.4985 25.2467 64.5897 25.2331 64.6808 25.2148L64.9611 26.4453C64.8107 26.4954 64.6466 26.5342 64.4689 26.5615C64.2912 26.5889 64.1134 26.6025 63.9357 26.6025C63.2749 26.6025 62.7463 26.418 62.3498 26.0488C61.9533 25.6751 61.755 25.1784 61.755 24.5586V17.0391ZM74.3941 23.3418V18.8574H75.8707V26.5H74.4215V25.1738H74.3395C74.1572 25.5794 73.8746 25.9189 73.4918 26.1924C73.109 26.4658 72.6305 26.6003 72.0562 26.5957C71.5641 26.5957 71.1288 26.4886 70.7506 26.2744C70.3769 26.0602 70.0829 25.7389 69.8687 25.3105C69.6591 24.8822 69.5543 24.3512 69.5543 23.7178V18.8574H71.0309V23.5469C71.0309 24.0618 71.1767 24.4743 71.4684 24.7842C71.76 25.0941 72.136 25.2467 72.5963 25.2422C72.8743 25.2422 73.15 25.1738 73.4234 25.0371C73.7014 24.9004 73.9316 24.6908 74.1139 24.4082C74.3007 24.1257 74.3941 23.7702 74.3941 23.3418ZM77.5726 29.3574V18.8574H79.0081V20.1016H79.1312C79.2223 19.9421 79.3476 19.7575 79.5071 19.5479C79.6712 19.3382 79.8991 19.1559 80.1907 19.001C80.4824 18.8415 80.8629 18.7617 81.3323 18.7617C81.9476 18.7617 82.4945 18.9167 82.973 19.2266C83.456 19.5365 83.8366 19.9854 84.1146 20.5732C84.3926 21.1611 84.5316 21.8698 84.5316 22.6992C84.5316 23.5195 84.3948 24.2259 84.1214 24.8184C83.848 25.4062 83.4697 25.8597 82.9866 26.1787C82.5081 26.4932 81.959 26.6504 81.3392 26.6504C80.8789 26.6504 80.5006 26.5729 80.2044 26.418C79.9127 26.2585 79.6826 26.0739 79.514 25.8643C79.3499 25.6546 79.2223 25.4701 79.1312 25.3105H79.0491V29.3574H77.5726ZM81.0179 25.3857C81.4599 25.3857 81.8291 25.2673 82.1253 25.0303C82.4215 24.7933 82.6448 24.472 82.7952 24.0664C82.9502 23.6562 83.0277 23.196 83.0277 22.6855C83.0277 22.1797 82.9525 21.7262 82.8021 21.3252C82.6517 20.9242 82.4284 20.6074 82.1321 20.375C81.8359 20.1426 81.4645 20.0264 81.0179 20.0264C80.5849 20.0264 80.2204 20.138 79.9241 20.3613C79.6279 20.5801 79.4023 20.89 79.2474 21.291C79.097 21.6875 79.0218 22.1523 79.0218 22.6855C79.0218 23.2188 79.0993 23.6882 79.2542 24.0938C79.4092 24.4993 79.6348 24.8161 79.931 25.0439C80.2318 25.2718 80.5941 25.3857 81.0179 25.3857ZM88.7354 26.6504C88.1156 26.6504 87.5642 26.4932 87.0811 26.1787C86.598 25.8597 86.2198 25.4062 85.9463 24.8184C85.6729 24.2259 85.5362 23.5195 85.5362 22.6992C85.5362 21.8698 85.6752 21.1611 85.9532 20.5732C86.2312 19.9854 86.6117 19.5365 87.0948 19.2266C87.5778 18.9167 88.1247 18.7617 88.7354 18.7617C89.2139 18.7617 89.5967 18.8415 89.8838 19.001C90.1755 19.1559 90.4011 19.3382 90.5606 19.5479C90.7246 19.7575 90.85 19.9421 90.9366 20.1016H91.0254V16.3145H92.502V26.5H91.0596V25.3105H90.9366C90.85 25.4701 90.7224 25.6546 90.5537 25.8643C90.3851 26.0739 90.155 26.2585 89.8633 26.418C89.5762 26.5729 89.2002 26.6504 88.7354 26.6504ZM89.0567 25.3857C89.4851 25.3857 89.8474 25.2718 90.1436 25.0439C90.4398 24.8161 90.6631 24.4993 90.8135 24.0938C90.9685 23.6882 91.0459 23.2188 91.0459 22.6855C91.0459 22.1523 90.9707 21.6875 90.8204 21.291C90.67 20.89 90.4467 20.5801 90.1504 20.3613C89.8542 20.138 89.4896 20.0264 89.0567 20.0264C88.6101 20.0264 88.2386 20.1426 87.9424 20.375C87.6462 20.6074 87.4229 20.9242 87.2725 21.3252C87.1221 21.7262 87.0469 22.1797 87.0469 22.6855C87.0469 23.196 87.1221 23.6562 87.2725 24.0664C87.4229 24.472 87.6462 24.7933 87.9424 25.0303C88.2432 25.2673 88.6146 25.3857 89.0567 25.3857ZM96.4255 26.6641C95.9425 26.6641 95.505 26.5752 95.113 26.3975C94.7211 26.2152 94.4112 25.9508 94.1834 25.6045C93.9555 25.2581 93.8416 24.8366 93.8416 24.3398C93.8416 23.9069 93.9236 23.5537 94.0877 23.2803C94.2563 23.0023 94.4819 22.7812 94.7644 22.6172C95.047 22.4531 95.3614 22.3301 95.7078 22.248C96.0541 22.166 96.4096 22.1022 96.7742 22.0566C97.2345 22.0065 97.6059 21.9632 97.8884 21.9268C98.171 21.8903 98.3761 21.8333 98.5037 21.7559C98.6358 21.6738 98.7019 21.5439 98.7019 21.3662V21.332C98.7019 20.8991 98.5789 20.5641 98.3328 20.3271C98.0912 20.0902 97.7312 19.9717 97.2527 19.9717C96.756 19.9717 96.3617 20.0811 96.0701 20.2998C95.783 20.514 95.5847 20.7578 95.4754 21.0312L94.074 20.71C94.2426 20.2451 94.4864 19.8714 94.8054 19.5889C95.129 19.3018 95.4981 19.0921 95.9129 18.96C96.3321 18.8278 96.7696 18.7617 97.2254 18.7617C97.5307 18.7617 97.8543 18.7982 98.1961 18.8711C98.5379 18.9395 98.8591 19.0693 99.1599 19.2607C99.4653 19.4476 99.7136 19.7165 99.905 20.0674C100.096 20.4183 100.192 20.8717 100.192 21.4277V26.5H98.7361V25.4541H98.6814C98.5903 25.641 98.4467 25.8278 98.2507 26.0146C98.0593 26.2015 97.8132 26.3564 97.5125 26.4795C97.2117 26.6025 96.8494 26.6641 96.4255 26.6641ZM96.7468 25.4746C97.1616 25.4746 97.5147 25.3949 97.8064 25.2354C98.0981 25.0713 98.3214 24.8571 98.4763 24.5928C98.6313 24.3285 98.7088 24.0482 98.7088 23.752V22.7607C98.6541 22.8109 98.5515 22.8587 98.4011 22.9043C98.2507 22.9499 98.0798 22.9886 97.8884 23.0205C97.697 23.0524 97.5102 23.082 97.3279 23.1094C97.1456 23.1322 96.9929 23.1504 96.8699 23.1641C96.5828 23.2051 96.3207 23.2689 96.0838 23.3555C95.8468 23.4375 95.6554 23.5605 95.5095 23.7246C95.3683 23.8841 95.2976 24.096 95.2976 24.3604C95.2976 24.7295 95.4343 25.0075 95.7078 25.1943C95.9812 25.3812 96.3276 25.4746 96.7468 25.4746ZM105.456 18.8574V20.0537H101.286V18.8574H105.456ZM102.4 17.0391H103.883V24.2578C103.883 24.6087 103.956 24.8662 104.102 25.0303C104.248 25.1898 104.483 25.2695 104.806 25.2695C104.884 25.2695 104.966 25.265 105.052 25.2559C105.143 25.2467 105.235 25.2331 105.326 25.2148L105.606 26.4453C105.456 26.4954 105.291 26.5342 105.114 26.5615C104.936 26.5889 104.758 26.6025 104.581 26.6025C103.92 26.6025 103.391 26.418 102.995 26.0488C102.598 25.6751 102.4 25.1784 102.4 24.5586V17.0391ZM110.008 26.6572C109.261 26.6572 108.613 26.4954 108.067 26.1719C107.52 25.8483 107.098 25.3926 106.802 24.8047C106.51 24.2122 106.364 23.5218 106.364 22.7334C106.364 21.9495 106.508 21.2591 106.795 20.6621C107.087 20.0651 107.495 19.6003 108.019 19.2676C108.547 18.9303 109.167 18.7617 109.878 18.7617C110.311 18.7617 110.73 18.8324 111.136 18.9736C111.542 19.1149 111.906 19.3382 112.23 19.6436C112.553 19.9489 112.808 20.3454 112.995 20.833C113.187 21.3206 113.282 21.9085 113.282 22.5967V23.1299H107.205V22.0156H112.517L111.826 22.3848C111.826 21.9154 111.753 21.5007 111.608 21.1406C111.462 20.7806 111.243 20.5003 110.951 20.2998C110.664 20.0947 110.307 19.9922 109.878 19.9922C109.45 19.9922 109.083 20.0947 108.778 20.2998C108.477 20.5049 108.247 20.776 108.087 21.1133C107.928 21.4505 107.848 21.8197 107.848 22.2207V22.9795C107.848 23.5036 107.939 23.9479 108.121 24.3125C108.304 24.6771 108.557 24.9551 108.88 25.1465C109.208 25.3379 109.589 25.4336 110.022 25.4336C110.304 25.4336 110.559 25.3926 110.787 25.3105C111.02 25.2285 111.22 25.1055 111.389 24.9414C111.557 24.7773 111.685 24.5745 111.772 24.333L113.18 24.5996C113.066 25.0098 112.865 25.3698 112.578 25.6797C112.291 25.9896 111.929 26.2311 111.491 26.4043C111.058 26.5729 110.564 26.6572 110.008 26.6572ZM117.445 26.6504C116.825 26.6504 116.274 26.4932 115.791 26.1787C115.308 25.8597 114.93 25.4062 114.656 24.8184C114.383 24.2259 114.246 23.5195 114.246 22.6992C114.246 21.8698 114.385 21.1611 114.663 20.5732C114.941 19.9854 115.322 19.5365 115.805 19.2266C116.288 18.9167 116.835 18.7617 117.445 18.7617C117.924 18.7617 118.307 18.8415 118.594 19.001C118.885 19.1559 119.111 19.3382 119.27 19.5479C119.434 19.7575 119.56 19.9421 119.646 20.1016H119.735V16.3145H121.212V26.5H119.769V25.3105H119.646C119.56 25.4701 119.432 25.6546 119.264 25.8643C119.095 26.0739 118.865 26.2585 118.573 26.418C118.286 26.5729 117.91 26.6504 117.445 26.6504ZM117.767 25.3857C118.195 25.3857 118.557 25.2718 118.853 25.0439C119.15 24.8161 119.373 24.4993 119.523 24.0938C119.678 23.6882 119.756 23.2188 119.756 22.6855C119.756 22.1523 119.681 21.6875 119.53 21.291C119.38 20.89 119.156 20.5801 118.86 20.3613C118.564 20.138 118.199 20.0264 117.767 20.0264C117.32 20.0264 116.948 20.1426 116.652 20.375C116.356 20.6074 116.133 20.9242 115.982 21.3252C115.832 21.7262 115.757 22.1797 115.757 22.6855C115.757 23.196 115.832 23.6562 115.982 24.0664C116.133 24.472 116.356 24.7933 116.652 25.0303C116.953 25.2673 117.324 25.3857 117.767 25.3857ZM124.028 26.5957C123.75 26.5957 123.513 26.5 123.317 26.3086C123.126 26.1172 123.03 25.8825 123.03 25.6045C123.03 25.3265 123.126 25.0918 123.317 24.9004C123.513 24.709 123.75 24.6133 124.028 24.6133C124.306 24.6133 124.541 24.709 124.732 24.9004C124.928 25.0918 125.026 25.3265 125.026 25.6045C125.026 25.8825 124.928 26.1172 124.732 26.3086C124.541 26.5 124.306 26.5957 124.028 26.5957ZM124.028 21.2363C123.75 21.2363 123.513 21.1406 123.317 20.9492C123.126 20.7578 123.03 20.5231 123.03 20.2451C123.03 19.9671 123.126 19.7324 123.317 19.541C123.513 19.3496 123.75 19.2539 124.028 19.2539C124.306 19.2539 124.541 19.3496 124.732 19.541C124.928 19.7324 125.026 19.9671 125.026 20.2451C125.026 20.5231 124.928 20.7578 124.732 20.9492C124.541 21.1406 124.306 21.2363 124.028 21.2363ZM130.344 26.5V16.3145H136.667V17.6338H131.882V20.9355H136.209V22.248H131.882V26.5H130.344ZM140.857 26.6572C140.11 26.6572 139.463 26.4954 138.916 26.1719C138.369 25.8483 137.947 25.3926 137.651 24.8047C137.36 24.2122 137.214 23.5218 137.214 22.7334C137.214 21.9495 137.357 21.2591 137.644 20.6621C137.936 20.0651 138.344 19.6003 138.868 19.2676C139.397 18.9303 140.016 18.7617 140.727 18.7617C141.16 18.7617 141.58 18.8324 141.985 18.9736C142.391 19.1149 142.755 19.3382 143.079 19.6436C143.402 19.9489 143.658 20.3454 143.845 20.833C144.036 21.3206 144.132 21.9085 144.132 22.5967V23.1299H138.054V22.0156H143.366L142.676 22.3848C142.676 21.9154 142.603 21.5007 142.457 21.1406C142.311 20.7806 142.092 20.5003 141.801 20.2998C141.513 20.0947 141.156 19.9922 140.727 19.9922C140.299 19.9922 139.932 20.0947 139.627 20.2998C139.326 20.5049 139.096 20.776 138.936 21.1133C138.777 21.4505 138.697 21.8197 138.697 22.2207V22.9795C138.697 23.5036 138.788 23.9479 138.971 24.3125C139.153 24.6771 139.406 24.9551 139.729 25.1465C140.057 25.3379 140.438 25.4336 140.871 25.4336C141.153 25.4336 141.409 25.3926 141.637 25.3105C141.869 25.2285 142.069 25.1055 142.238 24.9414C142.407 24.7773 142.534 24.5745 142.621 24.333L144.029 24.5996C143.915 25.0098 143.715 25.3698 143.428 25.6797C143.14 25.9896 142.778 26.2311 142.341 26.4043C141.908 26.5729 141.413 26.6572 140.857 26.6572ZM149.217 26.6504C148.757 26.6504 148.379 26.5729 148.083 26.418C147.791 26.2585 147.561 26.0739 147.392 25.8643C147.228 25.6546 147.1 25.4701 147.009 25.3105H146.886V26.5H145.451V16.3145H146.927V20.1016H147.009C147.1 19.9421 147.226 19.7575 147.385 19.5479C147.549 19.3382 147.777 19.1559 148.069 19.001C148.361 18.8415 148.741 18.7617 149.21 18.7617C149.826 18.7617 150.373 18.9167 150.851 19.2266C151.334 19.5365 151.715 19.9854 151.993 20.5732C152.271 21.1611 152.41 21.8698 152.41 22.6992C152.41 23.5195 152.273 24.2259 152 24.8184C151.726 25.4062 151.348 25.8597 150.865 26.1787C150.386 26.4932 149.837 26.6504 149.217 26.6504ZM148.896 25.3857C149.338 25.3857 149.707 25.2673 150.003 25.0303C150.3 24.7933 150.523 24.472 150.673 24.0664C150.828 23.6562 150.906 23.196 150.906 22.6855C150.906 22.1797 150.831 21.7262 150.68 21.3252C150.53 20.9242 150.307 20.6074 150.01 20.375C149.714 20.1426 149.343 20.0264 148.896 20.0264C148.463 20.0264 148.098 20.138 147.802 20.3613C147.506 20.5801 147.28 20.89 147.126 21.291C146.975 21.6875 146.9 22.1523 146.9 22.6855C146.9 23.2188 146.977 23.6882 147.132 24.0938C147.287 24.4993 147.513 24.8161 147.809 25.0439C148.11 25.2718 148.472 25.3857 148.896 25.3857ZM157.14 26.5V25.3926L160.585 21.8105C160.95 21.4277 161.25 21.0905 161.487 20.7988C161.729 20.5026 161.909 20.2223 162.027 19.958C162.15 19.6937 162.212 19.4134 162.212 19.1172C162.212 18.7754 162.132 18.4814 161.973 18.2354C161.813 17.9893 161.597 17.8001 161.323 17.668C161.05 17.5358 160.74 17.4697 160.394 17.4697C160.029 17.4697 159.712 17.5449 159.443 17.6953C159.174 17.8411 158.965 18.0508 158.814 18.3242C158.669 18.5931 158.596 18.9098 158.596 19.2744H157.133C157.133 18.6546 157.274 18.1123 157.557 17.6475C157.844 17.1826 158.236 16.8226 158.732 16.5674C159.234 16.3076 159.799 16.1777 160.428 16.1777C161.07 16.1777 161.635 16.3053 162.123 16.5605C162.611 16.8158 162.991 17.1621 163.265 17.5996C163.538 18.0326 163.675 18.5225 163.675 19.0693C163.675 19.4476 163.604 19.8167 163.463 20.1768C163.326 20.5368 163.082 20.9401 162.731 21.3867C162.385 21.8288 161.902 22.362 161.282 22.9863L159.259 25.1055V25.1875H163.839V26.5H157.14ZM168.849 26.6367C168.138 26.6367 167.509 26.5137 166.963 26.2676C166.42 26.0215 165.994 25.6842 165.684 25.2559C165.379 24.8229 165.226 24.3307 165.226 23.7793C165.226 23.3555 165.315 22.9613 165.493 22.5967C165.675 22.2321 165.921 21.929 166.231 21.6875C166.541 21.446 166.89 21.291 167.277 21.2227V21.1611C166.771 21.0381 166.363 20.7669 166.053 20.3477C165.748 19.9238 165.595 19.4408 165.595 18.8984C165.595 18.3743 165.734 17.9072 166.012 17.4971C166.295 17.0869 166.68 16.7656 167.168 16.5332C167.66 16.2962 168.22 16.1777 168.849 16.1777C169.469 16.1777 170.023 16.2962 170.51 16.5332C171.003 16.7656 171.388 17.0869 171.666 17.4971C171.948 17.9072 172.09 18.3743 172.09 18.8984C172.09 19.4408 171.935 19.9238 171.625 20.3477C171.319 20.7669 170.918 21.0381 170.422 21.1611V21.2227C170.804 21.291 171.151 21.446 171.461 21.6875C171.771 21.929 172.017 22.2321 172.199 22.5967C172.381 22.9613 172.472 23.3555 172.472 23.7793C172.472 24.3307 172.317 24.8229 172.007 25.2559C171.698 25.6842 171.269 26.0215 170.722 26.2676C170.18 26.5137 169.556 26.6367 168.849 26.6367ZM168.849 25.3789C169.269 25.3789 169.633 25.3105 169.943 25.1738C170.253 25.0326 170.492 24.8343 170.661 24.5791C170.829 24.3239 170.914 24.0277 170.914 23.6904C170.914 23.335 170.823 23.0228 170.64 22.7539C170.463 22.4805 170.219 22.2663 169.909 22.1113C169.599 21.9518 169.246 21.8721 168.849 21.8721C168.448 21.8721 168.091 21.9495 167.776 22.1045C167.466 22.2594 167.222 22.4736 167.045 22.7471C166.867 23.0205 166.778 23.335 166.778 23.6904C166.778 24.0277 166.862 24.3239 167.031 24.5791C167.2 24.8343 167.439 25.0326 167.749 25.1738C168.059 25.3105 168.425 25.3789 168.849 25.3789ZM168.849 20.6484C169.187 20.6484 169.485 20.5801 169.745 20.4434C170.009 20.3066 170.216 20.1175 170.367 19.876C170.522 19.6344 170.599 19.3519 170.599 19.0283C170.599 18.7093 170.524 18.4313 170.374 18.1943C170.228 17.9574 170.023 17.7728 169.758 17.6406C169.499 17.5085 169.196 17.4424 168.849 17.4424C168.498 17.4424 168.191 17.5085 167.926 17.6406C167.662 17.7728 167.457 17.9574 167.311 18.1943C167.165 18.4313 167.092 18.7093 167.092 19.0283C167.092 19.3519 167.168 19.6344 167.318 19.876C167.468 20.1175 167.674 20.3066 167.933 20.4434C168.198 20.5801 168.503 20.6484 168.849 20.6484ZM173.491 29.0225L174.092 25.0371H175.692L174.564 29.0225H173.491ZM180.969 26.5V25.3926L184.414 21.8105C184.778 21.4277 185.079 21.0905 185.316 20.7988C185.558 20.5026 185.738 20.2223 185.856 19.958C185.979 19.6937 186.041 19.4134 186.041 19.1172C186.041 18.7754 185.961 18.4814 185.802 18.2354C185.642 17.9893 185.426 17.8001 185.152 17.668C184.879 17.5358 184.569 17.4697 184.223 17.4697C183.858 17.4697 183.541 17.5449 183.272 17.6953C183.003 17.8411 182.794 18.0508 182.643 18.3242C182.498 18.5931 182.425 18.9098 182.425 19.2744H180.962C180.962 18.6546 181.103 18.1123 181.386 17.6475C181.673 17.1826 182.065 16.8226 182.561 16.5674C183.063 16.3076 183.628 16.1777 184.257 16.1777C184.899 16.1777 185.464 16.3053 185.952 16.5605C186.44 16.8158 186.82 17.1621 187.094 17.5996C187.367 18.0326 187.504 18.5225 187.504 19.0693C187.504 19.4476 187.433 19.8167 187.292 20.1768C187.155 20.5368 186.911 20.9401 186.56 21.3867C186.214 21.8288 185.731 22.362 185.111 22.9863L183.088 25.1055V25.1875H187.668V26.5H180.969ZM192.788 26.6367C192.004 26.6367 191.332 26.4316 190.771 26.0215C190.215 25.6113 189.789 25.0189 189.493 24.2441C189.201 23.4648 189.055 22.5215 189.055 21.4141C189.055 20.3112 189.203 19.3701 189.5 18.5908C189.796 17.807 190.222 17.21 190.778 16.7998C191.338 16.3851 192.008 16.1777 192.788 16.1777C193.572 16.1777 194.241 16.3851 194.797 16.7998C195.358 17.21 195.784 17.807 196.076 18.5908C196.372 19.3701 196.52 20.3112 196.52 21.4141C196.52 22.5215 196.374 23.4648 196.083 24.2441C195.791 25.0189 195.367 25.6113 194.811 26.0215C194.255 26.4316 193.581 26.6367 192.788 26.6367ZM192.788 25.3242C193.266 25.3242 193.669 25.1715 193.998 24.8662C194.326 24.5609 194.576 24.1165 194.75 23.5332C194.923 22.9453 195.009 22.2389 195.009 21.4141C195.009 20.5846 194.923 19.8783 194.75 19.2949C194.576 18.707 194.326 18.2604 193.998 17.9551C193.669 17.6452 193.266 17.4902 192.788 17.4902C192.081 17.4902 191.534 17.8343 191.147 18.5225C190.764 19.2061 190.573 20.1699 190.573 21.4141C190.573 22.2389 190.659 22.9453 190.833 23.5332C191.006 24.1165 191.256 24.5609 191.585 24.8662C191.917 25.1715 192.318 25.3242 192.788 25.3242ZM197.99 26.5V25.3926L201.435 21.8105C201.799 21.4277 202.1 21.0905 202.337 20.7988C202.579 20.5026 202.759 20.2223 202.877 19.958C203 19.6937 203.062 19.4134 203.062 19.1172C203.062 18.7754 202.982 18.4814 202.823 18.2354C202.663 17.9893 202.447 17.8001 202.173 17.668C201.9 17.5358 201.59 17.4697 201.243 17.4697C200.879 17.4697 200.562 17.5449 200.293 17.6953C200.024 17.8411 199.815 18.0508 199.664 18.3242C199.519 18.5931 199.446 18.9098 199.446 19.2744H197.983C197.983 18.6546 198.124 18.1123 198.407 17.6475C198.694 17.1826 199.086 16.8226 199.582 16.5674C200.084 16.3076 200.649 16.1777 201.278 16.1777C201.92 16.1777 202.485 16.3053 202.973 16.5605C203.461 16.8158 203.841 17.1621 204.115 17.5996C204.388 18.0326 204.525 18.5225 204.525 19.0693C204.525 19.4476 204.454 19.8167 204.313 20.1768C204.176 20.5368 203.932 20.9401 203.581 21.3867C203.235 21.8288 202.752 22.362 202.132 22.9863L200.109 25.1055V25.1875H204.689V26.5H197.99ZM205.844 24.5107V23.2734L210.239 16.3145H211.217V18.1465H210.588L207.443 23.123V23.2051H213.479V24.5107H205.844ZM210.656 26.5V24.1348L210.67 23.5674V16.3145H212.133V26.5H210.656Z" fill="#666D80"/>
<path d="M230 15.6666C227.054 15.6666 224.667 18.0545 224.667 21C224.667 22.9741 225.739 24.6976 227.333 25.6198M230 15.6666L228.667 14.3333M230 15.6666L229 17.3333M230 26.3333C232.946 26.3333 235.333 23.9455 235.333 21C235.333 19.0259 234.261 17.3023 232.667 16.3802M230 26.3333L231.333 27.6666M230 26.3333L231 24.6666" stroke="#4E57EF" stroke-width="1.5" stroke-linecap="round" stroke-linejoin="round"/>
</g>
<g filter="url(#filter1_d_7_1472)">
<rect x="854" y="1" width="82" height="40" rx="10" fill="white" shape-rendering="crispEdges"/>
<rect x="854.5" y="1.5" width="81" height="39" rx="9.5" stroke="#DFE1E6" shape-rendering="crispEdges"/>
<path d="M879.333 15H868.667C868.298 15 868 15.2985 868 15.6667V16.7468C868 17.3306 868.255 17.8853 868.698 18.2653L871.968 21.068C872.412 21.448 872.667 22.0027 872.667 22.5865V27L875.333 25.6667V22.5865C875.333 22.0027 875.588 21.448 876.032 21.068L879.302 18.2653C879.745 17.8853 880 17.3306 880 16.7468V15.6667C880 15.2985 879.702 15 879.333 15Z" stroke="#808897" stroke-width="2" stroke-linecap="round" stroke-linejoin="round"/>
<path d="M890.945 26.5V16.3145H897.268V17.6338H892.483V20.9355H896.81V22.248H892.483V26.5H890.945ZM898.73 26.5V18.8574H900.207V26.5H898.73ZM899.476 17.6816C899.216 17.6816 898.995 17.5951 898.812 17.4219C898.63 17.2487 898.539 17.0413 898.539 16.7998C898.539 16.5537 898.63 16.3441 898.812 16.1709C898.995 15.9977 899.216 15.9111 899.476 15.9111C899.731 15.9111 899.949 15.9977 900.132 16.1709C900.319 16.3441 900.412 16.5537 900.412 16.7998C900.412 17.0413 900.319 17.2487 900.132 17.4219C899.949 17.5951 899.731 17.6816 899.476 17.6816ZM903.385 16.3145V26.5H901.909V16.3145H903.385ZM908.642 18.8574V20.0537H904.472V18.8574H908.642ZM905.586 17.0391H907.07V24.2578C907.07 24.6087 907.143 24.8662 907.288 25.0303C907.434 25.1898 907.669 25.2695 907.993 25.2695C908.07 25.2695 908.152 25.265 908.239 25.2559C908.33 25.2467 908.421 25.2331 908.512 25.2148L908.792 26.4453C908.642 26.4954 908.478 26.5342 908.3 26.5615C908.122 26.5889 907.945 26.6025 907.767 26.6025C907.106 26.6025 906.578 26.418 906.181 26.0488C905.785 25.6751 905.586 25.1784 905.586 24.5586V17.0391ZM913.194 26.6572C912.447 26.6572 911.8 26.4954 911.253 26.1719C910.706 25.8483 910.285 25.3926 909.988 24.8047C909.697 24.2122 909.551 23.5218 909.551 22.7334C909.551 21.9495 909.694 21.2591 909.982 20.6621C910.273 20.0651 910.681 19.6003 911.205 19.2676C911.734 18.9303 912.354 18.7617 913.065 18.7617C913.497 18.7617 913.917 18.8324 914.322 18.9736C914.728 19.1149 915.093 19.3382 915.416 19.6436C915.74 19.9489 915.995 20.3454 916.182 20.833C916.373 21.3206 916.469 21.9085 916.469 22.5967V23.1299H910.392V22.0156H915.703L915.013 22.3848C915.013 21.9154 914.94 21.5007 914.794 21.1406C914.648 20.7806 914.429 20.5003 914.138 20.2998C913.851 20.0947 913.493 19.9922 913.065 19.9922C912.636 19.9922 912.269 20.0947 911.964 20.2998C911.663 20.5049 911.433 20.776 911.274 21.1133C911.114 21.4505 911.034 21.8197 911.034 22.2207V22.9795C911.034 23.5036 911.125 23.9479 911.308 24.3125C911.49 24.6771 911.743 24.9551 912.066 25.1465C912.395 25.3379 912.775 25.4336 913.208 25.4336C913.491 25.4336 913.746 25.3926 913.974 25.3105C914.206 25.2285 914.407 25.1055 914.575 24.9414C914.744 24.7773 914.871 24.5745 914.958 24.333L916.366 24.5996C916.252 25.0098 916.052 25.3698 915.765 25.6797C915.478 25.9896 915.115 26.2311 914.678 26.4043C914.245 26.5729 913.75 26.6572 913.194 26.6572ZM917.788 26.5V18.8574H919.217V20.0811H919.299C919.44 19.6709 919.686 19.3473 920.037 19.1104C920.392 18.8688 920.793 18.748 921.24 18.748C921.331 18.748 921.438 18.7526 921.561 18.7617C921.689 18.7663 921.791 18.7731 921.869 18.7822V20.2041C921.81 20.1859 921.703 20.1676 921.548 20.1494C921.397 20.1312 921.245 20.1221 921.09 20.1221C920.739 20.1221 920.424 20.1973 920.146 20.3477C919.873 20.4935 919.656 20.6963 919.497 20.9561C919.342 21.2113 919.264 21.5075 919.264 21.8447V26.5H917.788Z" fill="#666D80"/>
</g>
<g filter="url(#filter2_d_7_1472)">
<rect x="944" y="1" width="162" height="40" rx="10" fill="#3D2E84" shape-rendering="crispEdges"/>
<path d="M964 17V22.3333M964 22.3333L965.667 20.6667M964 22.3333L962.333 20.6667M969.333 21V23C969.333 24.1046 968.438 25 967.333 25H960.667C959.562 25 958.667 24.1046 958.667 23V21" stroke="white" stroke-width="1.33333" stroke-linecap="round" stroke-linejoin="round"/>
<path d="M982.674 16.3145V26.5H981.135V16.3145H982.674ZM984.492 26.5V18.8574H985.907V20.1152H986.009C986.169 19.6914 986.428 19.361 986.788 19.124C987.153 18.8825 987.586 18.7617 988.087 18.7617C988.598 18.7617 989.024 18.8825 989.366 19.124C989.712 19.361 989.969 19.6914 990.138 20.1152H990.22C990.402 19.7005 990.692 19.3724 991.088 19.1309C991.485 18.8848 991.956 18.7617 992.503 18.7617C993.196 18.7617 993.763 18.9805 994.205 19.418C994.648 19.8509 994.869 20.5049 994.869 21.3799V26.5H993.378V21.5166C993.378 20.9971 993.237 20.6234 992.954 20.3955C992.672 20.1631 992.335 20.0469 991.943 20.0469C991.46 20.0469 991.084 20.1973 990.815 20.498C990.551 20.7943 990.418 21.1702 990.418 21.626V26.5H988.928V21.4209C988.928 21.0062 988.801 20.6735 988.545 20.4229C988.29 20.1722 987.955 20.0469 987.54 20.0469C987.258 20.0469 986.996 20.1221 986.754 20.2725C986.517 20.4183 986.326 20.6234 986.18 20.8877C986.039 21.1475 985.968 21.4482 985.968 21.79V26.5H984.492ZM996.57 29.3574V18.8574H998.006V20.1016H998.129C998.22 19.9421 998.345 19.7575 998.505 19.5479C998.669 19.3382 998.897 19.1559 999.189 19.001C999.48 18.8415 999.861 18.7617 1000.33 18.7617C1000.95 18.7617 1001.49 18.9167 1001.97 19.2266C1002.45 19.5365 1002.83 19.9854 1003.11 20.5732C1003.39 21.1611 1003.53 21.8698 1003.53 22.6992C1003.53 23.5195 1003.39 24.2259 1003.12 24.8184C1002.85 25.4062 1002.47 25.8597 1001.98 26.1787C1001.51 26.4932 1000.96 26.6504 1000.34 26.6504C999.877 26.6504 999.498 26.5729 999.202 26.418C998.911 26.2585 998.68 26.0739 998.512 25.8643C998.348 25.6546 998.22 25.4701 998.129 25.3105H998.047V29.3574H996.57ZM1000.02 25.3857C1000.46 25.3857 1000.83 25.2673 1001.12 25.0303C1001.42 24.7933 1001.64 24.472 1001.79 24.0664C1001.95 23.6562 1002.03 23.196 1002.03 22.6855C1002.03 22.1797 1001.95 21.7262 1001.8 21.3252C1001.65 20.9242 1001.43 20.6074 1001.13 20.375C1000.83 20.1426 1000.46 20.0264 1000.02 20.0264C999.583 20.0264 999.218 20.138 998.922 20.3613C998.626 20.5801 998.4 20.89 998.245 21.291C998.095 21.6875 998.02 22.1523 998.02 22.6855C998.02 23.2188 998.097 23.6882 998.252 24.0938C998.407 24.4993 998.633 24.8161 998.929 25.0439C999.23 25.2718 999.592 25.3857 1000.02 25.3857ZM1008.1 26.6572C1007.38 26.6572 1006.75 26.4932 1006.22 26.165C1005.68 25.8369 1005.27 25.3766 1004.97 24.7842C1004.68 24.1917 1004.53 23.5036 1004.53 22.7197C1004.53 21.9268 1004.68 21.234 1004.97 20.6416C1005.27 20.0446 1005.68 19.582 1006.22 19.2539C1006.75 18.9258 1007.38 18.7617 1008.1 18.7617C1008.82 18.7617 1009.44 18.9258 1009.98 19.2539C1010.51 19.582 1010.92 20.0446 1011.22 20.6416C1011.52 21.234 1011.66 21.9268 1011.66 22.7197C1011.66 23.5036 1011.52 24.1917 1011.22 24.7842C1010.92 25.3766 1010.51 25.8369 1009.98 26.165C1009.44 26.4932 1008.82 26.6572 1008.1 26.6572ZM1008.1 25.4062C1008.56 25.4062 1008.95 25.2832 1009.26 25.0371C1009.56 24.791 1009.79 24.4652 1009.93 24.0596C1010.08 23.6494 1010.16 23.2028 1010.16 22.7197C1010.16 22.2275 1010.08 21.7764 1009.93 21.3662C1009.79 20.9561 1009.56 20.6279 1009.26 20.3818C1008.95 20.1357 1008.56 20.0127 1008.1 20.0127C1007.63 20.0127 1007.25 20.1357 1006.94 20.3818C1006.64 20.6279 1006.41 20.9561 1006.26 21.3662C1006.11 21.7764 1006.04 22.2275 1006.04 22.7197C1006.04 23.2028 1006.11 23.6494 1006.26 24.0596C1006.41 24.4652 1006.64 24.791 1006.94 25.0371C1007.25 25.2832 1007.63 25.4062 1008.1 25.4062ZM1013.02 26.5V18.8574H1014.45V20.0811H1014.53C1014.67 19.6709 1014.92 19.3473 1015.27 19.1104C1015.62 18.8688 1016.02 18.748 1016.47 18.748C1016.56 18.748 1016.67 18.7526 1016.79 18.7617C1016.92 18.7663 1017.02 18.7731 1017.1 18.7822V20.2041C1017.04 20.1859 1016.93 20.1676 1016.78 20.1494C1016.63 20.1312 1016.47 20.1221 1016.32 20.1221C1015.97 20.1221 1015.65 20.1973 1015.38 20.3477C1015.1 20.4935 1014.89 20.6963 1014.73 20.9561C1014.57 21.2113 1014.49 21.5075 1014.49 21.8447V26.5H1013.02ZM1022.09 18.8574V20.0537H1017.92V18.8574H1022.09ZM1019.03 17.0391H1020.52V24.2578C1020.52 24.6087 1020.59 24.8662 1020.73 25.0303C1020.88 25.1898 1021.12 25.2695 1021.44 25.2695C1021.52 25.2695 1021.6 25.265 1021.68 25.2559C1021.78 25.2467 1021.87 25.2331 1021.96 25.2148L1022.24 26.4453C1022.09 26.4954 1021.92 26.5342 1021.75 26.5615C1021.57 26.5889 1021.39 26.6025 1021.21 26.6025C1020.55 26.6025 1020.02 26.418 1019.63 26.0488C1019.23 25.6751 1019.03 25.1784 1019.03 24.5586V17.0391ZM1027.3 15.8359L1024.02 28.0312H1022.7L1025.98 15.8359H1027.3ZM1028.38 26.5V16.3145H1034.77V17.6338H1029.91V20.7031H1034.43V22.0156H1029.91V25.1807H1034.82V26.5H1028.38ZM1037.56 18.8574L1039.24 21.8379L1040.94 18.8574H1042.57L1040.2 22.6855L1042.59 26.5H1040.97L1039.24 23.6426L1037.54 26.5H1035.9L1038.27 22.6855L1035.93 18.8574H1037.56ZM1043.81 29.3574V18.8574H1045.25V20.1016H1045.37C1045.46 19.9421 1045.59 19.7575 1045.75 19.5479C1045.91 19.3382 1046.14 19.1559 1046.43 19.001C1046.72 18.8415 1047.1 18.7617 1047.57 18.7617C1048.19 18.7617 1048.73 18.9167 1049.21 19.2266C1049.7 19.5365 1050.08 19.9854 1050.35 20.5732C1050.63 21.1611 1050.77 21.8698 1050.77 22.6992C1050.77 23.5195 1050.63 24.2259 1050.36 24.8184C1050.09 25.4062 1049.71 25.8597 1049.23 26.1787C1048.75 26.4932 1048.2 26.6504 1047.58 26.6504C1047.12 26.6504 1046.74 26.5729 1046.44 26.418C1046.15 26.2585 1045.92 26.0739 1045.75 25.8643C1045.59 25.6546 1045.46 25.4701 1045.37 25.3105H1045.29V29.3574H1043.81ZM1047.26 25.3857C1047.7 25.3857 1048.07 25.2673 1048.36 25.0303C1048.66 24.7933 1048.88 24.472 1049.03 24.0664C1049.19 23.6562 1049.27 23.196 1049.27 22.6855C1049.27 22.1797 1049.19 21.7262 1049.04 21.3252C1048.89 20.9242 1048.67 20.6074 1048.37 20.375C1048.08 20.1426 1047.7 20.0264 1047.26 20.0264C1046.82 20.0264 1046.46 20.138 1046.16 20.3613C1045.87 20.5801 1045.64 20.89 1045.49 21.291C1045.34 21.6875 1045.26 22.1523 1045.26 22.6855C1045.26 23.2188 1045.34 23.6882 1045.49 24.0938C1045.65 24.4993 1045.87 24.8161 1046.17 25.0439C1046.47 25.2718 1046.83 25.3857 1047.26 25.3857ZM1055.34 26.6572C1054.62 26.6572 1053.99 26.4932 1053.46 26.165C1052.92 25.8369 1052.51 25.3766 1052.21 24.7842C1051.92 24.1917 1051.78 23.5036 1051.78 22.7197C1051.78 21.9268 1051.92 21.234 1052.21 20.6416C1052.51 20.0446 1052.92 19.582 1053.46 19.2539C1053.99 18.9258 1054.62 18.7617 1055.34 18.7617C1056.06 18.7617 1056.68 18.9258 1057.22 19.2539C1057.75 19.582 1058.16 20.0446 1058.46 20.6416C1058.76 21.234 1058.91 21.9268 1058.91 22.7197C1058.91 23.5036 1058.76 24.1917 1058.46 24.7842C1058.16 25.3766 1057.75 25.8369 1057.22 26.165C1056.68 26.4932 1056.06 26.6572 1055.34 26.6572ZM1055.34 25.4062C1055.81 25.4062 1056.19 25.2832 1056.5 25.0371C1056.8 24.791 1057.03 24.4652 1057.18 24.0596C1057.33 23.6494 1057.4 23.2028 1057.4 22.7197C1057.4 22.2275 1057.33 21.7764 1057.18 21.3662C1057.03 20.9561 1056.8 20.6279 1056.5 20.3818C1056.19 20.1357 1055.81 20.0127 1055.34 20.0127C1054.87 20.0127 1054.49 20.1357 1054.18 20.3818C1053.88 20.6279 1053.66 20.9561 1053.5 21.3662C1053.35 21.7764 1053.28 22.2275 1053.28 22.7197C1053.28 23.2028 1053.35 23.6494 1053.5 24.0596C1053.66 24.4652 1053.88 24.791 1054.18 25.0371C1054.49 25.2832 1054.87 25.4062 1055.34 25.4062ZM1060.26 26.5V18.8574H1061.69V20.0811H1061.77C1061.91 19.6709 1062.16 19.3473 1062.51 19.1104C1062.86 18.8688 1063.26 18.748 1063.71 18.748C1063.8 18.748 1063.91 18.7526 1064.03 18.7617C1064.16 18.7663 1064.26 18.7731 1064.34 18.7822V20.2041C1064.28 20.1859 1064.17 20.1676 1064.02 20.1494C1063.87 20.1312 1063.72 20.1221 1063.56 20.1221C1063.21 20.1221 1062.89 20.1973 1062.62 20.3477C1062.34 20.4935 1062.13 20.6963 1061.97 20.9561C1061.81 21.2113 1061.73 21.5075 1061.73 21.8447V26.5H1060.26ZM1069.33 18.8574V20.0537H1065.16V18.8574H1069.33ZM1066.27 17.0391H1067.76V24.2578C1067.76 24.6087 1067.83 24.8662 1067.98 25.0303C1068.12 25.1898 1068.36 25.2695 1068.68 25.2695C1068.76 25.2695 1068.84 25.265 1068.93 25.2559C1069.02 25.2467 1069.11 25.2331 1069.2 25.2148L1069.48 26.4453C1069.33 26.4954 1069.17 26.5342 1068.99 26.5615C1068.81 26.5889 1068.63 26.6025 1068.45 26.6025C1067.79 26.6025 1067.26 26.418 1066.87 26.0488C1066.47 25.6751 1066.27 25.1784 1066.27 24.5586V17.0391Z" fill="white"/>
<path d="M1082 19L1085.53 22.5286C1085.79 22.7889 1086.21 22.7889 1086.47 22.5286L1090 19" stroke="white" stroke-width="1.33333" stroke-linecap="round" stroke-linejoin="round"/>
</g>
<defs>
<filter id="filter0_d_7_1472" x="0" y="0" width="252" height="44" filterUnits="userSpaceOnUse" color-interpolation-filters="sRGB">
<feFlood flood-opacity="0" result="BackgroundImageFix"/>
<feColorMatrix in="SourceAlpha" type="matrix" values="0 0 0 0 0 0 0 0 0 0 0 0 0 0 0 0 0 0 127 0" result="hardAlpha"/>
<feOffset dy="1"/>
<feGaussianBlur stdDeviation="1"/>
<feComposite in2="hardAlpha" operator="out"/>
<feColorMatrix type="matrix" values="0 0 0 0 0.0509804 0 0 0 0 0.0509804 0 0 0 0 0.0705882 0 0 0 0.06 0"/>
<feBlend mode="normal" in2="BackgroundImageFix" result="effect1_dropShadow_7_1472"/>
<feBlend mode="normal" in="SourceGraphic" in2="effect1_dropShadow_7_1472" result="shape"/>
</filter>
<filter id="filter1_d_7_1472" x="852" y="0" width="86" height="44" filterUnits="userSpaceOnUse" color-interpolation-filters="sRGB">
<feFlood flood-opacity="0" result="BackgroundImageFix"/>
<feColorMatrix in="SourceAlpha" type="matrix" values="0 0 0 0 0 0 0 0 0 0 0 0 0 0 0 0 0 0 127 0" result="hardAlpha"/>
<feOffset dy="1"/>
<feGaussianBlur stdDeviation="1"/>
<feComposite in2="hardAlpha" operator="out"/>
<feColorMatrix type="matrix" values="0 0 0 0 0.0509804 0 0 0 0 0.0509804 0 0 0 0 0.0705882 0 0 0 0.06 0"/>
<feBlend mode="normal" in2="BackgroundImageFix" result="effect1_dropShadow_7_1472"/>
<feBlend mode="normal" in="SourceGraphic" in2="effect1_dropShadow_7_1472" result="shape"/>
</filter>
<filter id="filter2_d_7_1472" x="942" y="0" width="166" height="44" filterUnits="userSpaceOnUse" color-interpolation-filters="sRGB">
<feFlood flood-opacity="0" result="BackgroundImageFix"/>
<feColorMatrix in="SourceAlpha" type="matrix" values="0 0 0 0 0 0 0 0 0 0 0 0 0 0 0 0 0 0 127 0" result="hardAlpha"/>
<feOffset dy="1"/>
<feGaussianBlur stdDeviation="1"/>
<feComposite in2="hardAlpha" operator="out"/>
<feColorMatrix type="matrix" values="0 0 0 0 0.0509804 0 0 0 0 0.0509804 0 0 0 0 0.0705882 0 0 0 0.06 0"/>
<feBlend mode="normal" in2="BackgroundImageFix" result="effect1_dropShadow_7_1472"/>
<feBlend mode="normal" in="SourceGraphic" in2="effect1_dropShadow_7_1472" result="shape"/>
</filter>
</defs>
</svg>
