<svg width="18" height="19" viewBox="0 0 18 19" fill="none" xmlns="http://www.w3.org/2000/svg">
<path d="M8.06369 13.1453V14.6678C8.06369 15.9578 6.86368 17.0003 5.38618 17.0003C3.90868 17.0003 2.70117 15.9578 2.70117 14.6678V13.1453C2.70117 14.4353 3.90118 15.3503 5.38618 15.3503C6.86368 15.3503 8.06369 14.4278 8.06369 13.1453Z" stroke="#326CDB" stroke-width="1.5" stroke-linecap="round" stroke-linejoin="round"/>
<path d="M8.06248 11.0826C8.06248 11.4576 7.95748 11.8025 7.77748 12.1025C7.33498 12.83 6.42747 13.2876 5.37747 13.2876C4.32747 13.2876 3.41996 12.8225 2.97746 12.1025C2.79746 11.8025 2.6925 11.4576 2.6925 11.0826C2.6925 10.4376 2.99249 9.86005 3.47249 9.44005C3.95999 9.01255 4.62746 8.75757 5.36996 8.75757C6.11246 8.75757 6.77999 9.02005 7.26749 9.44005C7.76249 9.85255 8.06248 10.4376 8.06248 11.0826Z" stroke="#326CDB" stroke-width="1.5" stroke-linecap="round" stroke-linejoin="round"/>
<path d="M8.06369 11.0825V13.145C8.06369 14.435 6.86368 15.35 5.38618 15.35C3.90868 15.35 2.70117 14.4275 2.70117 13.145V11.0825C2.70117 9.79249 3.90118 8.75 5.38618 8.75C6.12868 8.75 6.79621 9.01248 7.28371 9.43248C7.76371 9.85248 8.06369 10.4375 8.06369 11.0825Z" stroke="#326CDB" stroke-width="1.5" stroke-linecap="round" stroke-linejoin="round"/>
<path d="M16.5 8.72749V10.2725C16.5 10.685 16.17 11.0225 15.75 11.0375H14.28C13.47 11.0375 12.7275 10.445 12.66 9.63501C12.615 9.16251 12.795 8.72001 13.11 8.41251C13.3875 8.12751 13.77 7.96252 14.19 7.96252H15.75C16.17 7.97752 16.5 8.31499 16.5 8.72749Z" stroke="#326CDB" stroke-width="1.5" stroke-linecap="round" stroke-linejoin="round"/>
<path d="M1.5 8.375V6.875C1.5 4.835 2.73 3.41 4.6425 3.17C4.8375 3.14 5.04 3.125 5.25 3.125H12C12.195 3.125 12.3825 3.13249 12.5625 3.16249C14.4975 3.38749 15.75 4.82 15.75 6.875V7.96251H14.19C13.77 7.96251 13.3875 8.12749 13.11 8.41249C12.795 8.71999 12.615 9.16249 12.66 9.63499C12.7275 10.445 13.47 11.0375 14.28 11.0375H15.75V12.125C15.75 14.375 14.25 15.875 12 15.875H10.125" stroke="#326CDB" stroke-width="1.5" stroke-linecap="round" stroke-linejoin="round"/>
</svg>
