<svg width="18" height="19" viewBox="0 0 18 19" fill="none" xmlns="http://www.w3.org/2000/svg">
<path d="M7.125 10.8125C7.125 11.54 7.68751 12.125 8.37751 12.125H9.78749C10.3875 12.125 10.875 11.6151 10.875 10.9776C10.875 10.2951 10.575 10.0476 10.1325 9.89005L7.875 9.10255C7.4325 8.94505 7.13251 8.70505 7.13251 8.01505C7.13251 7.38505 7.61999 6.86755 8.21999 6.86755H9.63C10.32 6.86755 10.8825 7.45255 10.8825 8.18005" stroke="#326CDB" stroke-width="1.5" stroke-linecap="round" stroke-linejoin="round"/>
<path d="M9 6.125V12.875" stroke="#326CDB" stroke-width="1.5" stroke-linecap="round" stroke-linejoin="round"/>
<path d="M16.5 9.5C16.5 13.64 13.14 17 9 17C4.86 17 1.5 13.64 1.5 9.5C1.5 5.36 4.86 2 9 2" stroke="#326CDB" stroke-width="1.5" stroke-linecap="round" stroke-linejoin="round"/>
<path d="M16.5 5V2H13.5" stroke="#326CDB" stroke-width="1.5" stroke-linecap="round" stroke-linejoin="round"/>
<path d="M12.75 5.75L16.5 2" stroke="#326CDB" stroke-width="1.5" stroke-linecap="round" stroke-linejoin="round"/>
</svg>
