<svg width="16" height="16" viewBox="0 0 16 16" fill="none" xmlns="http://www.w3.org/2000/svg">
<g clip-path="url(#clip0_83_8473)">
<path d="M2.13981 14.2002C2.2282 14.2002 2.29981 14.1286 2.29981 14.0402V9.5431C2.29981 9.45471 2.2282 9.3831 2.13981 9.3831H0.859812C0.8388 9.3831 0.817992 9.38723 0.798578 9.39527C0.779164 9.40331 0.761524 9.41509 0.746666 9.42995C0.731808 9.44481 0.720023 9.46245 0.711983 9.48187C0.703944 9.50128 0.699808 9.52209 0.699812 9.5431V14.0402C0.699812 14.1286 0.771422 14.2002 0.859812 14.2002H2.13981ZM2.13981 14.8402H0.859812C0.417969 14.8402 0.0598126 14.4821 0.0598126 14.0402V9.5431C0.0598126 9.10126 0.417969 8.7431 0.859812 8.7431H2.13981C2.58166 8.7431 2.93981 9.10126 2.93981 9.5431V14.0402C2.93981 14.4821 2.58166 14.8402 2.13981 14.8402ZM6.49003 14.2002C6.57842 14.2002 6.65003 14.1286 6.65003 14.0402V8.61446C6.65003 8.52607 6.57842 8.45446 6.49003 8.45446H5.21003C5.18902 8.45445 5.16821 8.45859 5.1488 8.46663C5.12938 8.47467 5.11174 8.48645 5.09688 8.50131C5.08203 8.51617 5.07024 8.53381 5.0622 8.55323C5.05416 8.57264 5.05003 8.59345 5.05003 8.61446V14.0402C5.05003 14.1286 5.12164 14.2002 5.21003 14.2002H6.49003ZM6.49003 14.8402H5.21003C4.76819 14.8402 4.41003 14.4821 4.41003 14.0402V8.61446C4.41003 8.17262 4.76819 7.81446 5.21003 7.81446H6.49003C6.93187 7.81446 7.29003 8.17262 7.29003 8.61446V14.0402C7.29003 14.4821 6.93187 14.8402 6.49003 14.8402ZM10.8402 14.2099C10.9286 14.2099 11.0002 14.1383 11.0002 14.0499V7.69532C11.0002 7.60702 10.9286 7.53532 10.8402 7.53532H9.56025C9.47194 7.53532 9.40025 7.60702 9.40025 7.69532V14.0499C9.40025 14.1383 9.47186 14.2099 9.56025 14.2099H10.8402ZM10.8402 14.8499H9.56025C9.11841 14.8499 8.76025 14.4917 8.76025 14.0499V7.69532C8.76025 7.25358 9.11844 6.89532 9.56025 6.89532H10.8402C11.2821 6.89532 11.6402 7.25358 11.6402 7.69532V14.0499C11.6402 14.4917 11.2821 14.8499 10.8402 14.8499ZM15.1905 14.2099C15.2789 14.2099 15.3505 14.1383 15.3505 14.0499V6.89535C15.3505 6.80696 15.2789 6.73535 15.1905 6.73535H13.9105C13.8895 6.73535 13.8686 6.73948 13.8492 6.74752C13.8298 6.75556 13.8122 6.76735 13.7973 6.7822C13.7825 6.79706 13.7707 6.8147 13.7626 6.83412C13.7546 6.85353 13.7505 6.87434 13.7505 6.89535V14.0499C13.7505 14.1383 13.8221 14.2099 13.9105 14.2099H15.1905ZM15.1905 14.8499H13.9105C13.4686 14.8499 13.1105 14.4918 13.1105 14.0499V6.89535C13.1105 6.45351 13.4686 6.09535 13.9105 6.09535H15.1905C15.6323 6.09535 15.9905 6.45351 15.9905 6.89535V14.0499C15.9905 14.4918 15.6323 14.8499 15.1905 14.8499ZM15.0935 1.69519C10.584 4.2358 5.55106 5.7346 0.300703 6.05218C0.124297 6.06285 -0.0100624 6.21451 0.000609444 6.39091C0.0112813 6.56732 0.162938 6.70168 0.339344 6.69101C5.68709 6.36754 10.8142 4.84071 15.4077 2.25279C15.5616 2.16604 15.6161 1.9709 15.5294 1.81691C15.4426 1.66293 15.2475 1.60844 15.0935 1.69519Z" fill="#326CDB"/>
<path d="M14.0814 1.76L15.6812 1.7624C15.858 1.76267 16.0015 1.61962 16.0017 1.44289C16.002 1.26615 15.859 1.12267 15.6822 1.1224L14.0824 1.12C13.9056 1.11973 13.7622 1.26278 13.7619 1.43951C13.7616 1.61625 13.9047 1.75973 14.0814 1.76Z" fill="#326CDB"/>
<path d="M15.3617 1.44147L15.3569 3.03252C15.3564 3.20925 15.4992 3.35295 15.676 3.35348C15.8527 3.35402 15.9964 3.21119 15.9969 3.03445L16.0017 1.44341C16.0023 1.26667 15.8594 1.12297 15.6827 1.12244C15.506 1.12191 15.3623 1.26473 15.3617 1.44147Z" fill="#326CDB"/>
</g>
<defs>
<clipPath id="clip0_83_8473">
<rect width="16" height="16" fill="white"/>
</clipPath>
</defs>
</svg>
