<svg width="20" height="20" viewBox="0 0 20 20" fill="none" xmlns="http://www.w3.org/2000/svg">
<path d="M15.76 2.7998H4.23999C3.4447 2.7998 2.79999 3.44451 2.79999 4.2398V15.7598C2.79999 16.5551 3.4447 17.1998 4.23999 17.1998H15.76C16.5553 17.1998 17.2 16.5551 17.2 15.7598V4.2398C17.2 3.44451 16.5553 2.7998 15.76 2.7998Z" fill="#6772E5"/>
<path fill-rule="evenodd" clip-rule="evenodd" d="M9.35678 8.18558C9.35678 7.81118 9.66398 7.66718 10.1728 7.66718C10.9024 7.66718 11.824 7.88798 12.5536 8.28158V6.02558C11.7568 5.70878 10.9696 5.58398 10.1728 5.58398C8.22398 5.58398 6.92798 6.60158 6.92798 8.30078C6.92798 10.9504 10.576 10.528 10.576 11.6704C10.576 12.112 10.192 12.256 9.65438 12.256C8.85758 12.256 7.83998 11.9296 7.03358 11.488V13.7728C7.92638 14.1568 8.82878 14.32 9.65438 14.32C11.6512 14.32 13.024 13.3312 13.024 11.6128C13.0144 8.75198 9.35678 9.26078 9.35678 8.18558Z" fill="white"/>
</svg>
